{"title":"Selena Gomez David Letterman March 18,2013 720p HD[Orion_Me]","uid":8275327,"size":384551328,"categoryP":"video","categoryS":"hd___tv_shows","magnet":"?xt=urn:btih:d593c468f920aecb94fadea5792fea023bd97daf&amp;dn=Selena+Gomez+David+Letterman+March+18%2C2013+720p+HD%5BOrion_Me%5D&amp;tr=udp%3A%2F%2Ftracker.openbittorrent.com%3A80&amp;tr=udp%3A%2F%2Fopen.demonii.com%3A1337&amp;tr=udp%3A%2F%2Ftracker.coppersurfer.tk%3A6969&amp;tr=udp%3A%2F%2Fexodus.desync.com%3A6969","seeders":1,"leechers":0,"uploader":"Orion_Me","files":11,"time":1363703629,"description":"_____________________________________________________________________________ \n       ooooooo        ooooooo       ooo       ooooooo      ooooo      ooo\n    ooo       ooo  ooo       ooo    ooo    ooo       ooo   oooooo     ooo \n    ooo       ooo  ooo      ooo     ooo    ooo       ooo   ooo ooo    ooo \n    ooo       ooo  ooo     ooo      ooo    ooo       ooo   ooo  ooo   ooo \n    ooo       ooo  oooooooooo       ooo    ooo       ooo   ooo   ooo  ooo\n    ooo       ooo  ooo     ooo      ooo    ooo       ooo   ooo    ooo ooo\n    ooo       ooo  ooo      ooo     ooo    ooo       ooo   ooo     oooooo\n       ooooooo     ooo       ooo    ooo       ooooooo      ooo      ooooo\n          \n                                                 \n                        ooooooo ooooooo         ooooooo       \n                      ooo     ooo     ooo     ooo\n                      ooo     ooo     ooo     ooo\n                      ooo     ooo     ooo     ooooooooo\n                      ooo     ooo     ooo     ooooooooo\n                      ooo     ooo     ooo     ooo\n                      ooo     ooo     ooo     ooo\n                      ooo     ooo     ooo       ooooooo\n______________________________________________________________________________\n\nKEEP LOOKING FORWARD TO FUTURE RELEASES.......Please seed as long as you can!!\n\nGeneral\nComplete name                    :Selena Gomez David Letterman March 18,2013 720p HD[Orion_Me].mp4\nFormat                           : MPEG-4\nFormat profile                   : Base Media\nCodec ID                         : isom\nFile size                        : 366 MiB\nDuration                         : 9mn 30s\nOverall bit rate                 : 5 387 Kbps\nWriting application              : Lavf52.94.0\n\nVideo\nID                               : 1\nFormat                           : AVC\nFormat/Info                      : Advanced Video Codec\nFormat profile                   : &lt;a class=&quot;__cf_email__&quot; href=&quot;/cdn-cgi/l/email-protection&quot; data-cfemail=&quot;92dafbf5fad2dea1bca3&quot;&gt;[email&amp;#160;protected]&lt;/a&gt;&lt;script cf-hash='f9e31' type=&quot;text/javascript&quot;&gt;\n/* &lt;![CDATA[ */!function(){try{var t=&quot;currentScript&quot;in document?document.currentScript:function(){for(var t=document.getElementsByTagName(&quot;script&quot;),e=t.length;e--;)if(t[e].getAttribute(&quot;cf-hash&quot;))return t[e]}();if(t&amp;&amp;t.previousSibling){var e,r,n,i,c=t.previousSibling,a=c.getAttribute(&quot;data-cfemail&quot;);if(a){for(e=&quot;&quot;,r=parseInt(a.substr(0,2),16),n=2;a.length-n;n+=2)i=parseInt(a.substr(n,2),16)^r,e+=String.fromCharCode(i);e=document.createTextNode(e),c.parentNode.replaceChild(e,c)}}}catch(u){}}();/* ]]&gt; */&lt;/script&gt;\nFormat settings, CABAC           : Yes\nFormat settings, ReFrames        : 2 frames\nCodec ID                         : avc1\nCodec ID/Info                    : Advanced Video Coding\nDuration                         : 9mn 30s\nBit rate mode                    : Variable\nBit rate                         : 5 005 Kbps\nWidth                            : 1 280 pixels\nHeight                           : 720 pixels\nDisplay aspect ratio             : 16:9\nFrame rate mode                  : Variable\nFrame rate                       : 25.000 fps\nMinimum frame rate               : 6.250 fps\nMaximum frame rate               : 25.000 fps\nColor space                      : YUV\nChroma subsampling               : 4:2:0\nBit depth                        : 8 bits\nScan type                        : Progressive\nBits/(Pixel*Frame)               : 0.217\nStream size                      : 340 MiB (93%)\nWriting library                  : x264 core 112 r1834 a51816a\n\nAudio\nID                               : 2\nFormat                           : AAC\nFormat/Info                      : Advanced Audio Codec\nFormat version                   : Version 4\nFormat profile                   : LC\nFormat settings, SBR             : No\nCodec ID                         : 40\nDuration                         : 9mn 30s\nBit rate mode                    : Variable\nBit rate                         : 384 Kbps\nChannel(s)                       : 6 channels\nChannel positions                : Front: L C R, Side: L R, LFE\nSampling rate                    : 48.0 KHz\nStream size                      : 26.0 MiB (7%)\n\n \n\n\n           --The Most Important Things In Life Aren't Free--\n","torrent":{"xt":"urn:btih:d593c468f920aecb94fadea5792fea023bd97daf","amp;dn":"Selena+Gomez+David+Letterman+March+18%2C2013+720p+HD%5BOrion_Me%5D","amp;tr":["udp%3A%2F%2Ftracker.openbittorrent.com%3A80","udp%3A%2F%2Fopen.demonii.com%3A1337","udp%3A%2F%2Ftracker.coppersurfer.tk%3A6969","udp%3A%2F%2Fexodus.desync.com%3A6969"],"infoHash":"d593c468f920aecb94fadea5792fea023bd97daf","infoHashBuffer":{"type":"Buffer","data":[213,147,196,104,249,32,174,203,148,250,222,165,121,47,234,2,59,217,125,175]},"announce":[],"urlList":[]}}